PathFileType	4	(X/Y/Z)	/Users/itak/Documents/Research/Walk-IL/dataset/trc/00218_00009.trc
DataRate	CameraRate	NumFrames	NumMarkers	Units	OrigDataRate	OrigDataStartFrame	OrigNumFrames
100.000000	100.000000	4	53	mm	100.000000	255	510
Frame#	Time	RPSI			LPSI			L3			STRN			T10			C7			CLAV			RBAK			LBAK			LSHO			LUPA			LAEL			LAOL			LWTS			LWPS			LFRA			LIFD			LHPS			LHTS			RSHO			RUPA			RAEL			RAOL			RWTS			RWPS			RFRA			RIFD			RHTS			RHPS			RBHD			LFHD			RFHD			LBHD			LHIP			RHIP			RASI			LASI			LKNE			LTHI			LANK			LTIP			LTOE			LMT1			LMT5			LHEE			RKNE			RANK			RTIP			RTOE			RMT1			RMT5			RHEE			RTHI			
		X1	Y1	Z1	X2	Y2	Z2	X3	Y3	Z3	X4	Y4	Z4	X5	Y5	Z5	X6	Y6	Z6	X7	Y7	Z7	X8	Y8	Z8	X9	Y9	Z9	X10	Y10	Z10	X11	Y11	Z11	X12	Y12	Z12	X13	Y13	Z13	X14	Y14	Z14	X15	Y15	Z15	X16	Y16	Z16	X17	Y17	Z17	X18	Y18	Z18	X19	Y19	Z19	X20	Y20	Z20	X21	Y21	Z21	X22	Y22	Z22	X23	Y23	Z23	X24	Y24	Z24	X25	Y25	Z25	X26	Y26	Z26	X27	Y27	Z27	X28	Y28	Z28	X29	Y29	Z29	X30	Y30	Z30	X31	Y31	Z31	X32	Y32	Z32	X33	Y33	Z33	X34	Y34	Z34	X35	Y35	Z35	X36	Y36	Z36	X37	Y37	Z37	X38	Y38	Z38	X39	Y39	Z39	X40	Y40	Z40	X41	Y41	Z41	X42	Y42	Z42	X43	Y43	Z43	X44	Y44	Z44	X45	Y45	Z45	X46	Y46	Z46	X47	Y47	Z47	X48	Y48	Z48	X49	Y49	Z49	X50	Y50	Z50	X51	Y51	Z51	X52	Y52	Z52	X53	Y53	Z53	

256	2.55	-409.6012878417969	1022.320861816406	-233.5405120849609	-410.1804809570312	1029.10986328125	-113.7184371948242	-403.8600769042969	1116.520874023438	-162.3760070800781	-654.7525024414062	1293.724609375	-155.7019500732422	-398.8864440917969	1242.358764648438	-172.8280334472656	-469.6554260253906	1502.60546875	-168.2195434570312	-631.3045654296875	1411.836181640625	-157.8623046875	-391.3561706542969	1367.244506835938	-247.0775604248047	-444.1212768554688	1463.472290039062	-57.37475967407227	-530.7838134765625	1461.792114257812	3.991616725921631	-494.4335327148438	1344.596069335938	82.893798828125	-498.6482238769531	1133.92822265625	113.1470794677734	-427.9273986816406	1121.24462890625	61.10872268676758	-570.3430786132812	890.7086181640625	69.34860992431641	-537.6289672851562	880.3414306640625	147.4682006835938	-510.8681030273438	1026.551879882812	130.6835327148438	-552.0502319335938	696.942626953125	85.68820953369141	-544.6920776367188	790.4019775390625	147.5141754150391	-591.27978515625	787.0699462890625	97.70027160644531	-537.5357055664062	1457.289794921875	-332.1929016113281	-522.3331909179688	1392.000122070312	-399.9566955566406	-515.4725952148438	1110.797485351562	-439.9114074707031	-471.8389892578125	1100.8583984375	-355.5826110839844	-664.9549560546875	910.2977294921875	-385.2650451660156	-618.260009765625	890.120361328125	-452.3662719726562	-547.6078491210938	1044.401977539062	-449.5382690429688	-696.1889038085938	719.154296875	-374.9135131835938	-715.6254272460938	793.2355346679688	-396.0038757324219	-666.415771484375	787.1980590820312	-448.7025146484375	-508.8419799804688	1647.359985351562	-223.6728210449219	-695.4789428710938	1709.316650390625	-108.2448501586914	-706.2642822265625	1706.359252929688	-208.4112701416016	-538.8916015625	1660.79150390625	-87.09531402587891	-521.0298461914062	979.2929077148438	25.00710678100586	-504.2532043457031	982.0921630859375	-342.3927917480469	-600.9347534179688	1031.316528320312	-310.693603515625	-615.3201904296875	1023.087951660156	-30.84173393249512	-692.1759643554688	520.3050537109375	-25.02821350097656	-643.7705688476562	653.8575439453125	6.031260967254639	-714.5724487304688	36.77446746826172	-36.59706115722656	-700.346435546875	288.5870056152344	-21.93379211425781	-917.8756103515625	74.13732147216797	-111.706672668457	-848.9486694335938	56.93537521362305	-147.4330596923828	-842.5841674804688	49.58539199829102	-34.69209671020508	-648.0468139648438	41.70188903808594	-83.52635192871094	-533.221435546875	492.5555725097656	-291.1735229492188	-317.1765441894531	43.81128311157227	-249.5804748535156	-508.5022583007812	372.1875	-271.9273071289062	-525.9196166992188	45.45451736450195	-205.1440124511719	-471.2166137695312	46.54438781738281	-164.3677062988281	-425.7359619140625	32.89538955688477	-275.9835815429688	-254.3758544921875	60.77371215820312	-192.0224456787109	-567.3150024414062	756.3942260742188	-334.5451049804688	
257	2.56	-401.2958679199219	1022.355346679688	-234.7229309082031	-401.9942932128906	1028.974853515625	-114.9071273803711	-395.5778198242188	1116.919555664062	-163.6629943847656	-647.73193359375	1292.842529296875	-156.7723388671875	-391.6457824707031	1242.66650390625	-174.4047088623047	-463.6484375	1502.530395507812	-169.8347320556641	-624.8797607421875	1411.075317382812	-159.0217895507812	-384.94189453125	1367.518676757812	-248.9600677490234	-437.7059936523438	1463.599731445312	-59.0437126159668	-524.2332153320312	1461.678833007812	2.59022068977356	-487.1371459960938	1344.622314453125	81.38941192626953	-489.9483642578125	1133.987426757812	111.5734100341797	-419.6654052734375	1121.625244140625	58.99493789672852	-560.0988159179688	890.0758056640625	68.82858276367188	-526.7907104492188	880.2412719726562	146.7058868408203	-501.3593444824219	1026.609008789062	129.3354339599609	-539.8850708007812	696.4468994140625	85.7081298828125	-532.9841918945312	790.25341796875	147.0849151611328	-579.8980102539062	786.2881469726562	97.56507873535156	-531.9111938476562	1456.831420898438	-333.52197265625	-516.9253540039062	1391.574584960938	-401.3508911132812	-510.8133544921875	1110.26416015625	-440.9728393554688	-465.9338073730469	1100.396362304688	-357.1425476074219	-660.3208618164062	910.5701293945312	-383.5835571289062	-614.734130859375	889.9520874023438	-451.3043518066406	-543.3603515625	1043.91748046875	-449.9838562011719	-692.3370971679688	719.6094360351562	-372.1694641113281	-711.7343139648438	793.7200927734375	-393.1756286621094	-663.3134765625	787.274169921875	-446.6043395996094	-503.332275390625	1647.133544921875	-225.1610565185547	-690.0919189453125	1708.29248046875	-109.5187301635742	-701.0436401367188	1705.285278320312	-209.6572570800781	-533.2838134765625	1660.455688476562	-88.54148101806641	-512.6513061523438	978.6903686523438	23.69821166992188	-495.7593383789062	982.0521240234375	-343.6713256835938	-593.1221923828125	1031.00390625	-312.2208557128906	-607.0946655273438	1022.538269042969	-32.07792663574219	-685.8690795898438	520.5823974609375	-25.53936195373535	-636.59423828125	653.7926025390625	5.3538818359375	-714.1748046875	36.96558380126953	-36.68455505371094	-696.1558227539062	289.0591125488281	-21.98965072631836	-916.3465576171875	78.58984375	-112.0481185913086	-847.58544921875	60.15779876708984	-147.6787872314453	-841.82666015625	51.89561080932617	-34.97163391113281	-647.2357788085938	40.74692916870117	-83.30662536621094	-526.4317016601562	492.3216857910156	-290.8018493652344	-316.4504699707031	41.71352386474609	-248.7277526855469	-503.2943420410156	371.70166015625	-271.1859130859375	-525.8155517578125	45.45143127441406	-204.8936309814453	-470.9684753417969	45.7274055480957	-163.9473571777344	-425.4970397949219	33.0887565612793	-275.8322448730469	-253.6318969726562	56.6966667175293	-190.5920257568359	-559.4027099609375	756.1478271484375	-335.391357421875	
258	2.57	-393.0531921386719	1022.426513671875	-235.8899383544922	-393.8665161132812	1028.900512695312	-116.0672073364258	-387.3338012695312	1117.360595703125	-164.9116363525391	-640.7073364257812	1292.072998046875	-157.8127746582031	-384.3976440429688	1243.02734375	-175.9071350097656	-457.58056640625	1502.529418945312	-171.3915710449219	-618.4234008789062	1410.419067382812	-160.1480102539062	-378.5079345703125	1367.84228515625	-250.7674865722656	-431.2745361328125	1463.796142578125	-60.65081405639648	-517.6793823242188	1461.655517578125	1.232210636138916	-479.8724060058594	1344.747192382812	79.94733428955078	-481.2692565917969	1134.142700195312	110.0405044555664	-411.4276733398438	1122.093627929688	56.92901992797852	-550.0234985351562	889.6145629882812	68.248046875	-516.1580810546875	880.252197265625	145.849365234375	-491.9169921875	1026.763427734375	127.9947128295898	-527.9990234375	696.1428833007812	85.49942779541016	-521.5098876953125	790.2303466796875	146.5117797851562	-568.7506103515625	785.6852416992188	97.28899383544922	-526.20166015625	1456.47119140625	-334.8031311035156	-511.4185485839844	1391.260131835938	-402.7019958496094	-505.961181640625	1109.8447265625	-442.0148620605469	-459.8789978027344	1100.046020507812	-358.6325988769531	-655.5243530273438	910.9661254882812	-382.0018615722656	-610.9689331054688	889.902587890625	-450.2805786132812	-538.890625	1043.554565429688	-450.4324340820312	-688.2559814453125	720.187255859375	-369.5203247070312	-707.6426391601562	794.3211669921875	-390.4737243652344	-659.9437866210938	787.4779663085938	-444.5728759765625	-497.7912902832031	1647.015014648438	-226.5981903076172	-684.7061767578125	1707.31689453125	-110.7677764892578	-695.7939453125	1704.266967773438	-210.8743438720703	-527.6649169921875	1660.209594726562	-89.94422149658203	-504.2782592773438	978.1618041992188	22.44682693481445	-487.3359985351562	982.0970458984375	-344.9613037109375	-585.3558349609375	1030.763427734375	-313.63037109375	-598.8928833007812	1022.08935546875	-33.19792556762695	-679.3164672851562	520.8374633789062	-25.98035430908203	-629.2366333007812	653.7227172851562	4.810271263122559	-713.6007080078125	37.23332595825195	-36.8212776184082	-691.690185546875	289.5404052734375	-22.02864837646484	-914.6168823242188	83.16008758544922	-112.2248458862305	-846.08251953125	63.49841690063477	-147.8316650390625	-840.8469848632812	54.43682098388672	-35.12793731689453	-646.267333984375	39.74157333374023	-83.11785888671875	-520.2528686523438	492.1360473632812	-290.7123413085938	-315.8325500488281	39.88319396972656	-248.2214508056641	-498.6055908203125	371.2814331054688	-270.6993713378906	-525.6905517578125	45.47428894042969	-204.6967315673828	-470.7173156738281	45.05896759033203	-163.5940856933594	-425.3059387207031	33.23554611206055	-275.7682800292969	-253.0165557861328	53.15796279907227	-189.6165618896484	-551.5704956054688	756.167724609375	-336.4547729492188	
259	2.58	-384.8920288085938	1022.5380859375	-237.0373077392578	-385.8102722167969	1028.877197265625	-117.1972808837891	-379.1819458007812	1117.829833984375	-166.1119384765625	-633.6964721679688	1291.422607421875	-158.8175659179688	-377.1651916503906	1243.431030273438	-177.3326873779297	-451.45361328125	1502.601440429688	-172.8827056884766	-611.9421997070312	1409.869262695312	-161.2360687255859	-372.0632019042969	1368.202758789062	-252.4858093261719	-424.8311462402344	1464.053344726562	-62.18611526489258	-511.1237487792969	1461.708618164062	-0.07259674370288849	-472.6383056640625	1344.952514648438	78.57169342041016	-472.627685546875	1134.373901367188	108.567008972168	-403.2158508300781	1122.63232421875	54.94305038452148	-540.1220092773438	889.3065185546875	67.59759521484375	-505.7389526367188	880.3425903320312	144.9010467529297	-482.5562744140625	1026.986206054688	126.6757354736328	-516.4492797851562	696.0001220703125	85.03606414794922	-510.3053588867188	790.2971801757812	145.7814178466797	-557.8582153320312	785.241943359375	96.86048889160156	-520.4013671875	1456.198974609375	-336.0345153808594	-505.8059692382812	1391.042236328125	-404.0044555664062	-500.9054870605469	1109.521606445312	-443.0361938476562	-453.6758728027344	1099.79443359375	-360.0469360351562	-650.5702514648438	911.4723510742188	-380.5406494140625	-606.9490966796875	889.9497680664062	-449.3041076660156	-534.1741943359375	1043.291625976562	-450.8859558105469	-683.960205078125	720.87744140625	-366.973876953125	-703.3544921875	795.0308837890625	-387.9245910644531	-656.3014526367188	787.7880859375	-442.6205444335938	-492.2166137695312	1647.008056640625	-227.9782562255859	-679.31689453125	1706.408447265625	-111.9873809814453	-690.5032958984375	1703.321044921875	-212.0594329833984	-522.0321044921875	1660.057373046875	-91.29786682128906	-495.9395751953125	977.6920776367188	21.25692176818848	-479.036865234375	982.2385864257812	-346.2445678710938	-577.640625	1030.58642578125	-314.9063110351562	-590.7357788085938	1021.723388671875	-34.20048141479492	-672.5590209960938	521.0574951171875	-26.36037635803223	-621.7210693359375	653.6235961914062	4.415847301483154	-712.729248046875	37.57716369628906	-37.00028610229492	-686.9708862304688	290.0175170898438	-22.06646537780762	-912.6787109375	87.67253112792969	-112.0796813964844	-844.45263671875	66.82410430908203	-147.7850036621094	-839.5349731445312	57.09535217285156	-35.06391525268555	-645.1015625	38.73690032958984	-83.01371765136719	-514.612548828125	492.0413513183594	-290.9093627929688	-315.3089599609375	38.28751373291016	-248.0329132080078	-494.3804321289062	370.9478759765625	-270.481689453125	-525.544921875	45.52400207519531	-204.5495147705078	-470.4676818847656	44.54658126831055	-163.3202819824219	-425.1467590332031	33.32503128051758	-275.7850646972656	-252.4967041015625	50.12945938110352	-189.0700378417969	-543.8230590820312	756.444091796875	-337.7238464355469	
